<svg xmlns="http://www.w3.org/2000/svg" width="24" height="24" fill="none"><rect width="24" height="24" fill="#4193D5" rx="8"/><path fill="#fff" d="M8.096 17V9.2c-.072.04-.172.084-.3.132-.12.04-.252.088-.396.144-.144.048-.28.096-.408.144-.128.04-.228.076-.3.108V8.36l.384-.192c.168-.08.344-.168.528-.264.184-.096.356-.2.516-.312.168-.112.296-.216.384-.312h1.44V17H8.096Zm6.248.168c-.584 0-1.068-.12-1.452-.36a2.244 2.244 0 0 1-.864-.984c-.192-.424-.288-.912-.288-1.464v-4.356c0-.568.092-1.064.276-1.488a2.15 2.15 0 0 1 .852-1.008c.384-.24.876-.36 1.476-.36.592 0 1.076.12 1.452.36.384.24.668.576.852 1.008.184.424.276.92.276 1.488v4.356c0 .552-.096 1.04-.288 1.464-.192.416-.48.744-.864.984s-.86.36-1.428.36Zm0-1.632c.216 0 .372-.068.468-.204.096-.136.16-.296.192-.48.032-.192.048-.368.048-.528V10.04c0-.176-.016-.36-.048-.552a1.068 1.068 0 0 0-.18-.492c-.096-.144-.256-.216-.48-.216-.224 0-.388.072-.492.216-.096.136-.16.3-.192.492a4.454 4.454 0 0 0-.036.552v4.284c0 .16.016.336.048.528.032.184.1.344.204.48.104.136.26.204.468.204Z"/></svg>
