<svg xmlns="http://www.w3.org/2000/svg" width="24" height="24" fill="none"><rect width="24" height="24" fill="#F2C346" rx="8"/><path fill="#fff" d="M8.319 17V9.2c-.072.04-.172.084-.3.132-.12.04-.252.088-.396.144-.144.048-.28.096-.408.144-.128.04-.228.076-.3.108V8.36l.384-.192c.168-.08.344-.168.528-.264.184-.096.356-.2.516-.312.168-.112.296-.216.384-.312h1.44V17H8.319Zm3.476 0v-1.308l2.364-3.636c.176-.272.34-.532.492-.78.16-.248.288-.5.384-.756a2.27 2.27 0 0 0 .156-.84c0-.312-.06-.548-.18-.708a.596.596 0 0 0-.516-.252c-.24 0-.424.068-.552.204-.128.128-.216.3-.264.516a3.264 3.264 0 0 0-.072.708v.456h-1.812v-.48c0-.576.088-1.088.264-1.536.184-.448.468-.796.852-1.044.392-.256.904-.384 1.536-.384.856 0 1.5.224 1.932.672.432.448.648 1.076.648 1.884 0 .392-.06.756-.18 1.092-.12.328-.28.648-.48.96-.192.304-.4.62-.624.948l-1.872 2.82h2.892V17h-4.968Z"/></svg>
