<svg xmlns="http://www.w3.org/2000/svg" width="24" height="24" fill="none"><rect width="24" height="24" fill="#D9382F" rx="8"/><path fill="#fff" d="M8.167 17V9.2c-.072.04-.172.084-.3.132-.12.04-.252.088-.396.144-.144.048-.28.096-.408.144-.128.04-.228.076-.3.108V8.36l.384-.192c.168-.08.344-.168.528-.264.184-.096.356-.2.516-.312.168-.112.296-.216.384-.312h1.44V17H8.167Zm6.247.132c-.616 0-1.12-.136-1.512-.408a2.463 2.463 0 0 1-.852-1.14c-.176-.48-.264-1.028-.264-1.644v-3.456c0-.632.072-1.2.216-1.704.152-.504.416-.9.792-1.188.376-.288.912-.432 1.608-.432.6 0 1.076.096 1.428.288.36.184.62.46.78.828.16.368.24.82.24 1.356v.084a.227.227 0 0 1 .012.072H15.11c0-.408-.04-.712-.12-.912-.08-.2-.272-.3-.576-.3a.594.594 0 0 0-.456.18c-.104.12-.18.324-.228.612-.04.28-.06.668-.06 1.164v.996c.104-.176.264-.312.48-.408.224-.096.48-.148.768-.156.512-.016.92.1 1.224.348.312.24.536.576.672 1.008.136.424.204.904.204 1.44 0 .656-.08 1.24-.24 1.752-.16.512-.432.912-.816 1.2-.376.28-.892.42-1.548.42Zm.024-1.38c.2 0 .348-.068.444-.204.104-.136.172-.328.204-.576.04-.248.06-.548.06-.9a9.24 9.24 0 0 0-.036-.876c-.016-.256-.076-.456-.18-.6-.104-.144-.276-.216-.516-.216a.765.765 0 0 0-.324.072.773.773 0 0 0-.252.168.786.786 0 0 0-.168.204v1.548c0 .24.02.468.06.684.048.208.128.376.24.504.112.128.268.192.468.192Z"/></svg>
