<svg xmlns="http://www.w3.org/2000/svg" width="24" height="24" fill="none"><path fill="#12100D" d="M0 8a8 8 0 0 1 8-8h8a8 8 0 0 1 8 8v8a8 8 0 0 1-8 8H8a8 8 0 0 1-8-8V8Z"/><path fill="#fff" d="M8.26 17V9.2c-.072.04-.172.084-.3.132-.12.04-.252.088-.396.144-.144.048-.28.096-.408.144-.128.04-.228.076-.3.108V8.36l.384-.192c.168-.08.344-.168.528-.264.184-.096.356-.2.516-.312.168-.112.296-.216.384-.312h1.44V17H8.26Zm6.08.144c-.64 0-1.152-.124-1.536-.372a2.13 2.13 0 0 1-.828-1.068c-.16-.456-.24-.976-.24-1.56 0-.264.024-.512.072-.744.048-.232.12-.444.216-.636s.212-.36.348-.504c.144-.152.312-.276.504-.372a2.57 2.57 0 0 1-.696-.804c-.192-.352-.292-.796-.3-1.332-.008-.536.08-.996.264-1.38.184-.392.46-.692.828-.9.368-.208.824-.312 1.368-.312.552 0 1.008.104 1.368.312a1.9 1.9 0 0 1 .816.9c.176.384.26.844.252 1.38-.008.544-.108.992-.3 1.344a2.16 2.16 0 0 1-.684.792c.192.096.356.22.492.372.144.144.264.312.36.504.096.192.168.404.216.636.056.232.084.48.084.744.016.584-.064 1.104-.24 1.56a2.13 2.13 0 0 1-.828 1.068c-.376.248-.888.372-1.536.372Zm0-1.38c.232 0 .404-.08.516-.24.112-.16.184-.356.216-.588a4.92 4.92 0 0 0 .048-.672 3.795 3.795 0 0 0-.048-.744 1.255 1.255 0 0 0-.216-.588c-.112-.152-.284-.228-.516-.228-.224 0-.396.076-.516.228a1.353 1.353 0 0 0-.228.588 5.452 5.452 0 0 0 0 1.428c.032.232.104.428.216.588.12.152.296.228.528.228Zm0-4.572c.16 0 .288-.06.384-.18.104-.12.18-.292.228-.516a3.82 3.82 0 0 0 .072-.792c0-.344-.056-.62-.168-.828a.533.533 0 0 0-.516-.324c-.24 0-.42.108-.54.324-.112.208-.168.48-.168.816 0 .304.02.572.06.804.048.224.124.396.228.516a.55.55 0 0 0 .42.18Z"/></svg>
